<svg width="16" height="17" viewBox="0 0 16 17" fill="none" xmlns="http://www.w3.org/2000/svg">
<mask id="path-1-outside-1_5377_641" maskUnits="userSpaceOnUse" x="4" y="1.54297" width="11" height="12" fill="black">
<rect fill="white" x="4" y="1.54297" width="11" height="12"/>
<path fill-rule="evenodd" clip-rule="evenodd" d="M6 2.54297C5.44772 2.54297 5 2.99068 5 3.54297V7.76519C5 8.31748 5.44771 8.76519 6 8.76519H9.95001L11.2 9.75284L12.2 10.543V9.26849V8.76519H13C13.5523 8.76519 14 8.31748 14 7.76519V3.54297C14 2.99068 13.5523 2.54297 13 2.54297H6Z"/>
</mask>
<path d="M9.95001 8.76519L10.57 7.98056L10.2974 7.76519H9.95001V8.76519ZM11.2 9.75284L11.82 8.96821L11.2 9.75284ZM12.2 10.543L11.58 11.3276L13.2 12.6076V10.543H12.2ZM12.2 8.76519V7.76519H11.2V8.76519H12.2ZM6 3.54297V3.54297V1.54297C4.89543 1.54297 4 2.4384 4 3.54297H6ZM6 7.76519V3.54297H4V7.76519H6ZM6 7.76519H6H4C4 8.86976 4.89543 9.76519 6 9.76519V7.76519ZM9.95001 7.76519H6V9.76519H9.95001V7.76519ZM11.82 8.96821L10.57 7.98056L9.33005 9.54983L10.58 10.5375L11.82 8.96821ZM12.82 9.75833L11.82 8.96821L10.58 10.5375L11.58 11.3276L12.82 9.75833ZM11.2 9.26849V10.543H13.2V9.26849H11.2ZM11.2 8.76519V9.26849H13.2V8.76519H11.2ZM13 7.76519H12.2V9.76519H13V7.76519ZM13 7.76519V7.76519V9.76519C14.1046 9.76519 15 8.86976 15 7.76519H13ZM13 3.54297V7.76519H15V3.54297H13ZM13 3.54297H13H15C15 2.4384 14.1046 1.54297 13 1.54297V3.54297ZM6 3.54297H13V1.54297H6V3.54297Z" fill="white" mask="url(#path-1-outside-1_5377_641)"/>
<path d="M8.99999 10.043C8.99999 10.5646 8.57714 10.9874 8.05554 10.9874H4.6L2.59998 12.543V10.9874H2C1.44772 10.9874 1 10.5397 1 9.98741V6.54297C1 5.99068 1.44772 5.54297 2 5.54297H3.5" stroke="white"/>
<path d="M9.51634 7.99751V3.45206H9.80753V7.99751H9.51634ZM10.2887 4.95241C10.2745 4.80919 10.2135 4.69792 10.1058 4.61861C9.99811 4.5393 9.85192 4.49964 9.66726 4.49964C9.54179 4.49964 9.43584 4.5174 9.34943 4.55291C9.26302 4.58724 9.19673 4.63518 9.15057 4.69673C9.10559 4.75829 9.0831 4.82812 9.0831 4.90625C9.08073 4.97135 9.09434 5.02817 9.12393 5.0767C9.15471 5.12524 9.19673 5.16726 9.25 5.20277C9.30327 5.2371 9.36482 5.26728 9.43466 5.29332C9.5045 5.31818 9.57907 5.33949 9.65838 5.35724L9.98509 5.43537C10.1437 5.47088 10.2893 5.51823 10.4219 5.57741C10.5545 5.6366 10.6693 5.7094 10.7663 5.79581C10.8634 5.88222 10.9386 5.98402 10.9918 6.10121C11.0463 6.21839 11.0741 6.35275 11.0753 6.50426C11.0741 6.7268 11.0173 6.91974 10.9048 7.0831C10.7936 7.24527 10.6326 7.37133 10.4219 7.46129C10.2124 7.55007 9.95964 7.59446 9.66371 7.59446C9.37015 7.59446 9.11446 7.54948 8.89666 7.45952C8.68004 7.36955 8.51077 7.23639 8.38885 7.06001C8.26811 6.88246 8.20478 6.66288 8.19886 6.40128H8.94283C8.95111 6.5232 8.98603 6.625 9.04759 6.70668C9.11032 6.78717 9.19377 6.84813 9.29794 6.88956C9.40329 6.92981 9.52225 6.94993 9.65483 6.94993C9.78504 6.94993 9.89808 6.93099 9.99396 6.89311C10.091 6.85523 10.1662 6.80256 10.2195 6.73509C10.2727 6.66761 10.2994 6.59008 10.2994 6.50249C10.2994 6.42081 10.2751 6.35215 10.2266 6.29652C10.1792 6.24089 10.1094 6.19354 10.017 6.15447C9.9259 6.11541 9.81404 6.0799 9.68146 6.04794L9.28551 5.94851C8.97893 5.87393 8.73686 5.75734 8.5593 5.59872C8.38175 5.4401 8.29356 5.22644 8.29474 4.95774C8.29356 4.73757 8.35215 4.54522 8.47053 4.38068C8.59008 4.21615 8.75402 4.08771 8.96236 3.99538C9.17069 3.90305 9.40743 3.85689 9.67259 3.85689C9.94247 3.85689 10.178 3.90305 10.3793 3.99538C10.5817 4.08771 10.7391 4.21615 10.8516 4.38068C10.964 4.54522 11.022 4.7358 11.0256 4.95241H10.2887Z" fill="white"/>
<rect x="2" y="8.54297" width="2" height="1" fill="white"/>
<rect x="2" y="6.54297" width="1" height="1" fill="white"/>
</svg>
