<?xml version="1.0" encoding="UTF-8"?><svg id="Layer_4" xmlns="http://www.w3.org/2000/svg" xmlns:xlink="http://www.w3.org/1999/xlink" viewBox="0 0 440.14 96.44"><defs><style>.cls-1{fill:url(#linear-gradient);}.cls-2{fill:#23364f;font-family:Raleway-Bold, Raleway;font-size:56.71px;font-weight:700;}</style><linearGradient id="linear-gradient" x1="6.5" y1="46.24" x2="128.32" y2="46.24" gradientUnits="userSpaceOnUse"><stop offset="0" stop-color="#35e9ef"/><stop offset=".25" stop-color="#2fceee"/><stop offset=".78" stop-color="#228aed"/><stop offset="1" stop-color="#1c6ded"/></linearGradient></defs><text class="cls-2" transform="translate(140.07 67.31)"><tspan x="0" y="0">CLIMANCE</tspan></text><path class="cls-1" d="m31.02,8.06c-1.5,0-2.89.81-3.64,2.1L7.06,45.35c-.75,1.3-.75,2.91,0,4.2l20.32,35.19c.75,1.3,2.14,2.1,3.64,2.1h64.39c1.5,0,2.89-.81,3.64-2.1l20.32-35.19c.75-1.3.75-2.91,0-4.2l-20.32-35.19c-.75-1.3-2.14-2.1-3.64-2.1H31.02Zm32.2,68.42l-16.76-29.03,16.76-29.03,13.6,23.56h12.65l-13.58-23.53h14.38l16.74,28.99-16.74,28.99h-14.38l13.58-23.53h-12.65l-13.6,23.56Zm-12.68-.04h-14.38l-16.74-28.99,16.74-28.99h14.38l-16.74,28.99,16.74,28.99ZM115.77,20.84l5.98-5.09c2.38-2.03,3.25-3.13,3.25-4.69,0-1.71-1.21-2.7-2.8-2.7s-2.68.87-3.99,2.6l-2.18-1.71c1.66-2.31,3.3-3.62,6.4-3.62,3.4,0,5.73,2.08,5.73,5.18v.05c0,2.73-1.44,4.22-4.51,6.72l-3.57,2.98h8.26v2.68h-12.55v-2.41Z"/></svg>